<svg width="200" height="200" viewBox="0 0 200 200" fill="none" xmlns="http://www.w3.org/2000/svg">
<g clip-path="url(#clip0_14_2)">
<g filter="url(#filter0_d_14_2)">
<path d="M54.6824 137.85C54.6824 143.05 55.6324 146.5 57.5324 148.2C59.3324 149.7 60.6324 151.1 61.4324 152.4C62.3324 153.6 62.7824 155.15 62.7824 157.05C62.7824 159.25 61.7824 161 59.7824 162.3C57.7824 163.6 55.4324 164.25 52.7324 164.25C47.7324 164.25 43.7324 162.1 40.7324 157.8C37.8324 153.4 36.3824 146.75 36.3824 137.85C36.8824 75.55 37.2324 42.45 37.4324 38.55C37.6324 35.15 38.4824 32.65 39.9824 31.05C41.5824 29.35 43.6324 28.5 46.1324 28.5C48.8324 28.5 51.0324 29.5 52.7324 31.5C54.5324 33.5 55.4324 35.85 55.4324 38.55L54.6824 137.85ZM166.919 148.35C168.519 149.75 169.719 151.05 170.519 152.25C171.419 153.45 171.869 154.95 171.869 156.75C171.869 158.95 170.919 160.75 169.019 162.15C167.119 163.55 164.819 164.25 162.119 164.25C155.419 164.25 150.769 160.9 148.169 154.2C145.169 157.3 141.769 159.7 137.969 161.4C134.269 163.1 130.319 163.95 126.119 163.95C119.719 163.95 114.069 162.65 109.169 160.05C104.269 157.45 100.469 153.9 97.7687 149.4C95.0688 144.9 93.7188 139.8 93.7188 134.1V111.15C93.7188 105.85 92.7688 102.4 90.8688 100.8C89.1688 99.4 87.8688 98.05 86.9688 96.75C86.1688 95.45 85.7688 93.85 85.7688 91.95C85.7688 89.75 86.7688 88 88.7688 86.7C90.7688 85.4 93.1188 84.75 95.8188 84.75C100.819 84.75 104.719 86.95 107.519 91.35C110.419 95.75 111.819 102.4 111.719 111.3V130.2C111.719 134.7 113.219 138.45 116.219 141.45C119.319 144.45 122.969 145.95 127.169 145.95C132.669 145.95 137.119 144.4 140.519 141.3C144.019 138.1 145.769 133.7 145.769 128.1C146.169 106.5 146.419 94.6 146.519 92.4C146.619 89.9 147.569 87.95 149.369 86.55C151.269 85.05 153.319 84.3 155.519 84.3C157.819 84.3 159.869 85.05 161.669 86.55C163.569 88.05 164.519 90.05 164.519 92.55L163.919 137.85C163.919 139.85 164.119 141.85 164.519 143.85C165.019 145.85 165.819 147.35 166.919 148.35Z" fill="#469BFF"/>
</g>
</g>
<defs>
<filter id="filter0_d_14_2" x="32.3824" y="28.5" width="143.486" height="143.75" filterUnits="userSpaceOnUse" color-interpolation-filters="sRGB">
<feFlood flood-opacity="0" result="BackgroundImageFix"/>
<feColorMatrix in="SourceAlpha" type="matrix" values="0 0 0 0 0 0 0 0 0 0 0 0 0 0 0 0 0 0 127 0" result="hardAlpha"/>
<feOffset dy="4"/>
<feGaussianBlur stdDeviation="2"/>
<feComposite in2="hardAlpha" operator="out"/>
<feColorMatrix type="matrix" values="0 0 0 0 0 0 0 0 0 0 0 0 0 0 0 0 0 0 0.25 0"/>
<feBlend mode="normal" in2="BackgroundImageFix" result="effect1_dropShadow_14_2"/>
<feBlend mode="normal" in="SourceGraphic" in2="effect1_dropShadow_14_2" result="shape"/>
</filter>
<clipPath id="clip0_14_2">
<rect width="200" height="200" fill="white"/>
</clipPath>
</defs>
</svg>
