<svg width="476" height="193" viewBox="0 0 476 193" fill="none" xmlns="http://www.w3.org/2000/svg">
<path d="M25.6267 153.19C25.6267 160.47 26.9567 165.3 29.6167 167.68C32.1367 169.78 33.9567 171.74 35.0767 173.56C36.3367 175.24 36.9667 177.41 36.9667 180.07C36.9667 183.15 35.5667 185.6 32.7667 187.42C29.9667 189.24 26.6767 190.15 22.8967 190.15C15.8967 190.15 10.2967 187.14 6.09668 181.12C2.03668 174.96 0.00667986 165.65 0.00667986 153.19C0.70668 65.97 1.19668 19.63 1.47668 14.17C1.75668 9.40999 2.94668 5.90999 5.04668 3.66999C7.28668 1.28999 10.1567 0.0999905 13.6567 0.0999905C17.4367 0.0999905 20.5167 1.49999 22.8967 4.29999C25.4167 7.09999 26.6767 10.39 26.6767 14.17L25.6267 153.19ZM182.758 167.89C184.998 169.85 186.678 171.67 187.798 173.35C189.058 175.03 189.688 177.13 189.688 179.65C189.688 182.73 188.358 185.25 185.698 187.21C183.038 189.17 179.818 190.15 176.038 190.15C166.658 190.15 160.148 185.46 156.508 176.08C152.308 180.42 147.548 183.78 142.228 186.16C137.048 188.54 131.518 189.73 125.638 189.73C116.678 189.73 108.768 187.91 101.908 184.27C95.0475 180.63 89.7275 175.66 85.9475 169.36C82.1675 163.06 80.2775 155.92 80.2775 147.94V115.81C80.2775 108.39 78.9475 103.56 76.2875 101.32C73.9075 99.36 72.0875 97.47 70.8275 95.65C69.7075 93.83 69.1475 91.59 69.1475 88.93C69.1475 85.85 70.5475 83.4 73.3475 81.58C76.1475 79.76 79.4375 78.85 83.2175 78.85C90.2175 78.85 95.6775 81.93 99.5975 88.09C103.658 94.25 105.618 103.56 105.478 116.02V142.48C105.478 148.78 107.578 154.03 111.778 158.23C116.118 162.43 121.228 164.53 127.108 164.53C134.808 164.53 141.038 162.36 145.798 158.02C150.698 153.54 153.148 147.38 153.148 139.54C153.708 109.3 154.058 92.64 154.198 89.56C154.338 86.06 155.668 83.33 158.188 81.37C160.848 79.27 163.718 78.22 166.798 78.22C170.018 78.22 172.888 79.27 175.408 81.37C178.068 83.47 179.398 86.27 179.398 89.77L178.558 153.19C178.558 155.99 178.838 158.79 179.398 161.59C180.098 164.39 181.218 166.49 182.758 167.89ZM398.636 169.57C401.016 171.53 402.766 173.42 403.886 175.24C405.146 177.06 405.776 179.23 405.776 181.75C405.776 184.83 404.376 187.28 401.576 189.1C398.776 191.06 395.486 192.04 391.706 192.04C384.706 192.04 379.176 188.96 375.116 182.8C371.196 176.64 369.306 167.33 369.446 154.87V123.16C369.446 116.3 367.696 111.05 364.196 107.41C360.836 103.63 355.796 101.74 349.076 101.74C340.956 101.74 334.866 104.12 330.806 108.88C326.746 113.5 324.646 118.96 324.506 125.26C324.506 131.56 324.436 140.31 324.296 151.51C324.156 162.57 324.016 171.18 323.876 177.34C323.736 180.84 322.336 183.64 319.676 185.74C317.156 187.84 314.426 188.89 311.486 188.89C307.706 188.89 304.626 187.84 302.246 185.74C299.866 183.5 298.676 180.7 298.676 177.34L299.096 119.17C299.096 114.13 297.486 109.86 294.266 106.36C291.186 102.72 286.496 100.9 280.196 100.9C272.636 100.9 266.686 103.21 262.346 107.83C258.146 112.31 255.976 117.63 255.836 123.79L255.626 123.58L254.786 177.55C254.786 181.19 253.526 184.06 251.006 186.16C248.486 188.26 245.196 189.31 241.136 189.31C238.196 189.31 235.536 188.26 233.156 186.16C230.776 183.92 229.586 181.05 229.586 177.55C229.586 163.97 229.936 143.39 230.636 115.81C230.636 108.25 229.376 103.42 226.856 101.32C224.476 99.36 222.656 97.47 221.396 95.65C220.276 93.83 219.716 91.59 219.716 88.93C219.716 85.85 221.116 83.4 223.916 81.58C226.716 79.76 230.006 78.85 233.786 78.85C237.986 78.85 241.696 79.97 244.916 82.21C248.136 84.31 250.656 87.6 252.476 92.08C255.976 87.74 260.316 84.38 265.496 82C270.676 79.62 276.416 78.43 282.716 78.43C289.996 78.43 296.576 80.18 302.456 83.68C308.476 87.18 313.376 92.01 317.156 98.17C320.376 92.15 324.996 87.39 331.016 83.89C337.036 80.25 343.756 78.43 351.176 78.43C364.756 78.43 375.396 82.14 383.096 89.56C390.796 96.84 394.646 107.48 394.646 121.48V155.08C394.506 157.88 394.716 160.68 395.276 163.48C395.976 166.28 397.096 168.31 398.636 169.57ZM458.594 53.65C454.254 53.65 450.544 52.18 447.464 49.24C444.524 46.16 443.054 42.52 443.054 38.32C443.054 34.12 444.524 30.55 447.464 27.61C450.544 24.53 454.254 22.99 458.594 22.99C462.794 22.99 466.364 24.46 469.304 27.4C472.244 30.34 473.714 33.98 473.714 38.32C473.714 42.52 472.174 46.16 469.094 49.24C466.154 52.18 462.654 53.65 458.594 53.65ZM460.484 189.52C457.544 189.52 454.814 188.47 452.294 186.37C449.774 184.13 448.514 181.26 448.514 177.76L449.564 115.81C449.844 108.39 448.654 103.56 445.994 101.32C443.614 99.5 441.794 97.68 440.534 95.86C439.414 94.04 438.784 91.8 438.644 89.14C438.644 86.06 440.044 83.61 442.844 81.79C445.784 79.83 449.214 78.85 453.134 78.85C460.134 78.85 465.524 81.86 469.304 87.88C473.224 93.9 475.044 103.07 474.764 115.39C474.064 144.37 473.714 165.16 473.714 177.76C473.714 181.54 472.314 184.48 469.514 186.58C466.714 188.54 463.704 189.52 460.484 189.52Z" fill="#469BFF"/>
</svg>
