<svg width="600" height="300" viewBox="0 0 600 300" fill="none" xmlns="http://www.w3.org/2000/svg">
<g filter="url(#filter0_d_1_2)">
<path d="M102.049 204.8C102.049 211.733 103.316 216.333 105.849 218.6C108.249 220.6 109.983 222.467 111.049 224.2C112.249 225.8 112.849 227.867 112.849 230.4C112.849 233.333 111.516 235.667 108.849 237.4C106.183 239.133 103.049 240 99.4492 240C92.7826 240 87.4492 237.133 83.4492 231.4C79.5826 225.533 77.6492 216.667 77.6492 204.8C78.3159 121.733 78.7826 77.6 79.0492 72.4C79.3159 67.8667 80.4492 64.5333 82.4492 62.4C84.5826 60.1333 87.3159 59 90.6492 59C94.2492 59 97.1826 60.3333 99.4492 63C101.849 65.6667 103.049 68.8 103.049 72.4L102.049 204.8ZM251.698 218.8C253.831 220.667 255.431 222.4 256.498 224C257.698 225.6 258.298 227.6 258.298 230C258.298 232.933 257.031 235.333 254.498 237.2C251.964 239.067 248.898 240 245.298 240C236.364 240 230.164 235.533 226.698 226.6C222.698 230.733 218.164 233.933 213.098 236.2C208.164 238.467 202.898 239.6 197.298 239.6C188.764 239.6 181.231 237.867 174.698 234.4C168.164 230.933 163.098 226.2 159.498 220.2C155.898 214.2 154.098 207.4 154.098 199.8V169.2C154.098 162.133 152.831 157.533 150.298 155.4C148.031 153.533 146.298 151.733 145.098 150C144.031 148.267 143.498 146.133 143.498 143.6C143.498 140.667 144.831 138.333 147.498 136.6C150.164 134.867 153.298 134 156.898 134C163.564 134 168.764 136.933 172.498 142.8C176.364 148.667 178.231 157.533 178.098 169.4V194.6C178.098 200.6 180.098 205.6 184.098 209.6C188.231 213.6 193.098 215.6 198.698 215.6C206.031 215.6 211.964 213.533 216.498 209.4C221.164 205.133 223.498 199.267 223.498 191.8C224.031 163 224.364 147.133 224.498 144.2C224.631 140.867 225.898 138.267 228.298 136.4C230.831 134.4 233.564 133.4 236.498 133.4C239.564 133.4 242.298 134.4 244.698 136.4C247.231 138.4 248.498 141.067 248.498 144.4L247.698 204.8C247.698 207.467 247.964 210.133 248.498 212.8C249.164 215.467 250.231 217.467 251.698 218.8ZM457.296 220.4C459.563 222.267 461.229 224.067 462.296 225.8C463.496 227.533 464.096 229.6 464.096 232C464.096 234.933 462.763 237.267 460.096 239C457.429 240.867 454.296 241.8 450.696 241.8C444.029 241.8 438.763 238.867 434.896 233C431.163 227.133 429.363 218.267 429.496 206.4V176.2C429.496 169.667 427.829 164.667 424.496 161.2C421.296 157.6 416.496 155.8 410.096 155.8C402.363 155.8 396.563 158.067 392.696 162.6C388.829 167 386.829 172.2 386.696 178.2C386.696 184.2 386.629 192.533 386.496 203.2C386.363 213.733 386.229 221.933 386.096 227.8C385.963 231.133 384.629 233.8 382.096 235.8C379.696 237.8 377.096 238.8 374.296 238.8C370.696 238.8 367.763 237.8 365.496 235.8C363.229 233.667 362.096 231 362.096 227.8L362.496 172.4C362.496 167.6 360.963 163.533 357.896 160.2C354.963 156.733 350.496 155 344.496 155C337.296 155 331.629 157.2 327.496 161.6C323.496 165.867 321.429 170.933 321.296 176.8L321.096 176.6L320.296 228C320.296 231.467 319.096 234.2 316.696 236.2C314.296 238.2 311.163 239.2 307.296 239.2C304.496 239.2 301.963 238.2 299.696 236.2C297.429 234.067 296.296 231.333 296.296 228C296.296 215.067 296.629 195.467 297.296 169.2C297.296 162 296.096 157.4 293.696 155.4C291.429 153.533 289.696 151.733 288.496 150C287.429 148.267 286.896 146.133 286.896 143.6C286.896 140.667 288.229 138.333 290.896 136.6C293.563 134.867 296.696 134 300.296 134C304.296 134 307.829 135.067 310.896 137.2C313.963 139.2 316.363 142.333 318.096 146.6C321.429 142.467 325.563 139.267 330.496 137C335.429 134.733 340.896 133.6 346.896 133.6C353.829 133.6 360.096 135.267 365.696 138.6C371.429 141.933 376.096 146.533 379.696 152.4C382.763 146.667 387.163 142.133 392.896 138.8C398.629 135.333 405.029 133.6 412.096 133.6C425.029 133.6 435.163 137.133 442.496 144.2C449.829 151.133 453.496 161.267 453.496 174.6V206.6C453.363 209.267 453.563 211.933 454.096 214.6C454.763 217.267 455.829 219.2 457.296 220.4ZM514.399 110C510.266 110 506.733 108.6 503.799 105.8C500.999 102.867 499.599 99.4 499.599 95.4C499.599 91.4 500.999 88 503.799 85.2C506.733 82.2667 510.266 80.8 514.399 80.8C518.399 80.8 521.799 82.2 524.599 85C527.399 87.8 528.799 91.2667 528.799 95.4C528.799 99.4 527.333 102.867 524.399 105.8C521.599 108.6 518.266 110 514.399 110ZM516.199 239.4C513.399 239.4 510.799 238.4 508.399 236.4C505.999 234.267 504.799 231.533 504.799 228.2L505.799 169.2C506.066 162.133 504.933 157.533 502.399 155.4C500.133 153.667 498.399 151.933 497.199 150.2C496.133 148.467 495.533 146.333 495.399 143.8C495.399 140.867 496.733 138.533 499.399 136.8C502.199 134.933 505.466 134 509.199 134C515.866 134 520.999 136.867 524.599 142.6C528.333 148.333 530.066 157.067 529.799 168.8C529.133 196.4 528.799 216.2 528.799 228.2C528.799 231.8 527.466 234.6 524.799 236.6C522.133 238.467 519.266 239.4 516.199 239.4Z" fill="#469BFF"/>
</g>
<defs>
<filter id="filter0_d_1_2" x="73.6492" y="59" width="460.55" height="190.8" filterUnits="userSpaceOnUse" color-interpolation-filters="sRGB">
<feFlood flood-opacity="0" result="BackgroundImageFix"/>
<feColorMatrix in="SourceAlpha" type="matrix" values="0 0 0 0 0 0 0 0 0 0 0 0 0 0 0 0 0 0 127 0" result="hardAlpha"/>
<feOffset dy="4"/>
<feGaussianBlur stdDeviation="2"/>
<feComposite in2="hardAlpha" operator="out"/>
<feColorMatrix type="matrix" values="0 0 0 0 0 0 0 0 0 0 0 0 0 0 0 0 0 0 0.25 0"/>
<feBlend mode="normal" in2="BackgroundImageFix" result="effect1_dropShadow_1_2"/>
<feBlend mode="normal" in="SourceGraphic" in2="effect1_dropShadow_1_2" result="shape"/>
</filter>
</defs>
</svg>
